<?xml version="1.0" encoding="UTF-8"?>
<svg xmlns="http://www.w3.org/2000/svg" viewBox="0 0 634.44 372.25">
  <defs>
    <style>
      .cls-1 {
        letter-spacing: -.08em;
      }

      .cls-2, .cls-3 {
        fill: none;
        stroke: #a745a4;
        stroke-miterlimit: 10;
      }

      .cls-2, .cls-4 {
        font-family: SofachromeRg-Regular, Sofachrome;
        font-size: 138px;
      }

      .cls-3 {
        stroke-width: 16px;
      }

      .cls-5 {
        fill: #3d325b;
      }

      .cls-4 {
        fill: #a745a4;
      }
    </style>
  </defs>
  <g id="Calque_1" data-name="Calque 1">
    <g>
      <path class="cls-5" d="M440.64,72.7c-113.26-14.5-277.16-7.48-375.29,54.99-22.68,15.03-45.99,38.62-42.49,67.99,6.38,44.79,65.05,73.51,103.02,88.71-18.59-5.85-36.82-13.06-53.83-22.66-26.01-14.76-53.44-37.12-56.29-68.99-2.49-30.85,21.09-55.84,44.8-72.1C160.31,55.56,326.43,49.65,440.64,72.7h0Z"/>
      <path class="cls-5" d="M421.93,77.57c-101.97-15.57-208.66-12.38-307.41,18.99-30.49,10.25-60.84,23.43-85.39,44.62C9.34,158.3-5.15,182.51,2.94,209.21c9.6,30.74,41.04,51.16,68.44,65.01,11.6,5.76,23.61,10.67,35.8,15.04-6.11-2.15-12.17-4.43-18.17-6.88C55.89,268.54,13.81,245.77,2.34,209.39c-8.22-26.97,6.31-51.46,26.26-68.8,24.6-21.33,55.03-34.63,85.6-44.98,98.92-31.13,205.75-34.39,307.73-18.04h0Z"/>
      <path class="cls-5" d="M429.93,74.57c-101.97-15.57-208.66-12.38-307.41,18.99-30.49,10.25-60.84,23.43-85.39,44.62-19.78,17.11-34.27,41.32-26.19,68.03,9.6,30.74,41.04,51.16,68.44,65.01,11.6,5.76,23.61,10.67,35.8,15.04-6.11-2.15-12.17-4.43-18.17-6.88-33.11-13.84-75.19-36.61-86.66-72.99-8.22-26.97,6.31-51.46,26.26-68.8,24.6-21.33,55.03-34.63,85.6-44.98,98.92-31.13,205.75-34.39,307.73-18.04h0Z"/>
    </g>
    <g>
      <path class="cls-5" d="M214.6,306.2c112.15,13.32,273.39,5.95,370.34-55.98,19.79-13.37,39.63-32.03,42.37-56.97,4.01-49.86-61.27-82.65-100.56-98.67,24.46,7.89,48.29,18.15,69.27,33.28,45.69,32.83,52.93,78.54,9.2,117.25-24.53,21.65-55.01,35.08-85.6,45.6-96.35,31-205.92,34.11-305.03,15.49h0Z"/>
      <path class="cls-5" d="M203.31,309.86c108.68,15.95,237.66,10.6,339.09-34.21,25.67-12.09,51.57-27.49,67.39-51.74,30.64-49.49-17.68-90.13-59.1-110.55-11.4-5.78-23.22-10.72-35.22-15.12,12.03,4.32,23.89,9.18,35.33,14.9,41.99,20.28,90.35,61.24,59.61,111.16-15.85,24.42-41.85,39.99-67.62,52.19-100.19,44.72-232.01,50.15-339.47,33.38h0Z"/>
      <path class="cls-5" d="M193.31,313.86c108.68,15.95,237.66,10.6,339.09-34.21,25.67-12.09,51.57-27.49,67.39-51.74,30.64-49.49-17.68-90.13-59.1-110.55-11.4-5.78-23.22-10.72-35.22-15.12,12.03,4.32,23.89,9.18,35.33,14.9,41.99,20.28,90.35,61.24,59.61,111.16-15.85,24.42-41.85,39.99-67.62,52.19-100.19,44.72-232.01,50.15-339.47,33.38h0Z"/>
    </g>
    <path class="cls-3" d="M493.72,92.32c-13.86-6.07-16.93-5.03-31.14,10.57,10.51-18.31,10.56-21.54,.53-32.88,13.86,6.07,16.93,5.03,31.14-10.57-10.51,18.31-10.56,21.54-.53,32.88Z"/>
    <path class="cls-3" d="M149.04,290.52c10.73,5.91,13.27,5.3,25.88-6.23-9.81,13.99-10.09,16.59-2.85,26.46-10.73-5.91-13.27-5.3-25.88,6.23,9.81-13.99,10.09-16.59,2.85-26.46Z"/>
  </g>
  <g id="Calque_2" data-name="Calque 2">
    <text class="cls-4" transform="translate(75.46 230.31)"><tspan x="0" y="0">G</tspan><tspan class="cls-1" x="161.74" y="0">U</tspan><tspan x="314.78" y="0">A</tspan></text>
    <text class="cls-2" transform="translate(67.46 236.31)"><tspan x="0" y="0">G</tspan><tspan class="cls-1" x="161.74" y="0">U</tspan><tspan x="314.78" y="0">A</tspan></text>
    <text class="cls-2" transform="translate(60.46 243.31)"><tspan x="0" y="0">G</tspan><tspan class="cls-1" x="161.74" y="0">U</tspan><tspan x="314.78" y="0">A</tspan></text>
  </g>
</svg>